# This file uses centimeters as units for non-parametric coordinates.

mtllib model_pillar_3.mtl
g default
v -4.342410 0.510341 2.177920
v 5.164606 0.433565 2.392349
v -3.389016 8.399708 -0.163288
v 3.585835 8.322932 -0.406222
v -4.342410 0.510341 -0.037504
v 5.164606 0.433565 -0.255866
v -2.364650 8.399708 -1.189793
v -2.500674 0.510341 -0.951369
v -2.221666 0.510341 3.090569
v -3.389016 8.399708 2.325201
v 3.585835 8.322932 2.568402
v 2.597421 8.322932 2.568402
v -2.110813 8.399708 2.325201
v -4.756269 2.881799 2.325201
v -4.756269 2.881798 -0.163288
v -2.686972 2.881798 -1.189793
v 5.863492 2.805022 -0.406222
v 5.863494 2.805022 2.568402
v 3.489292 2.805022 4.450746
v -2.373490 2.881799 3.350340
v -3.551845 10.970325 0.707629
v -6.309516 2.881799 0.707629
v -5.724846 0.510341 0.737846
v -2.373120 -1.796695 0.707629
v 5.164606 0.433565 0.670952
v 5.863494 2.805022 0.634832
v 3.538393 13.322727 0.634832
v 2.021357 13.322727 0.634832
v -2.110813 10.970325 0.707629
v -3.598210 10.970325 1.751785
v -5.762895 2.881799 1.751785
v -5.238337 0.510341 1.667425
v -2.373120 -1.796695 1.751785
v 5.164606 0.433565 1.782128
v 5.863494 2.805022 1.882967
v 3.538394 13.322727 1.882967
v 2.474948 13.322727 1.882967
v -2.110813 10.970325 1.751785
v -0.920469 6.746834 1.751785
v -0.946007 6.746834 0.707629
v -1.290083 6.346039 -0.163288
v -1.359913 3.120594 -0.163288
v -1.319552 0.510341 -0.037504
v -0.269458 -2.608223 0.634832
v -0.806933 -2.531447 1.751785
v -1.319552 0.510341 3.090569
v -1.359913 3.120594 3.350340
v -1.290083 6.346039 2.325201
v 2.021357 8.322932 -1.337116
v 2.611862 2.805022 -3.005536
v 2.270556 0.433565 -2.695017
v 2.611028 -0.364537 0.634832
v 2.611028 -1.099615 1.882967
v 3.051497 0.433565 4.183839
vt 0.104373 0.147129
vt 0.183887 0.159359
vt 0.928712 0.201977
vt 0.846816 0.214850
vt 0.831847 0.136742
vt 0.901012 0.121081
vt 0.176351 0.237891
vt 0.087282 0.227311
vt 0.790583 0.226296
vt 0.779351 0.129626
vt 0.654885 0.162316
vt 0.646193 0.218508
vt 0.529136 0.201201
vt 0.561352 0.128864
vt 0.125718 0.414336
vt 0.165427 0.424102
vt 0.141693 0.493243
vt 0.112388 0.493611
vt 0.068482 0.139378
vt 0.176648 0.068228
vt 0.415999 0.160123
vt 0.906435 0.403292
vt 0.860377 0.403399
vt 0.789231 0.349503
vt 0.645365 0.396384
vt 0.581557 0.397231
vt 0.430754 0.148045
vt 0.456659 0.228012
vt 0.436904 0.224813
vt 0.993245 0.193033
vt 0.932920 0.496325
vt 0.956069 0.105725
vt 0.823920 0.041159
vt 0.753593 0.009030
vt 0.541558 0.106169
vt 0.642641 0.071795
vt 0.494687 0.200383
vt 0.562146 0.579391
vt 0.617628 0.586598
vt 0.875608 0.503626
vt 0.780695 0.387296
vt 0.153013 0.511334
vt 0.047058 0.224684
vt 0.206322 0.369334
vt 0.217812 0.395720
vt 0.229990 0.052188
vt 0.212963 0.159351
vt 0.207649 0.248324
vt 0.345251 0.417190
vt 0.378693 0.411196
vt 0.387608 0.574130
vt 0.364865 0.575831
vt 0.342581 0.173789
vt 0.342947 0.096826
vt 0.352719 0.234278
vt 0.006774 0.225711
vt 0.211162 0.419892
vt 0.340302 0.599344
vt 0.417108 0.586998
vt 0.498696 0.230528
vt 0.460831 0.127435
vt 0.088317 0.505814
vt 0.034448 0.125724
vt 0.159890 0.034594
vt 0.252110 0.017225
vt 0.379719 0.060865
vn -0.392148 -0.124988 0.911372
vn -0.274924 -0.120619 0.953870
vn -0.196559 0.049999 0.979216
vn -0.316759 0.034534 0.947877
vn 0.000000 0.217715 0.976012
vn 0.388707 0.223973 0.893724
vn 0.664670 0.508402 0.547486
vn 0.000000 0.552715 0.833370
vn -0.515894 0.011368 -0.856577
vn -0.082186 -0.002726 -0.996613
vn 0.045780 -0.095672 -0.994360
vn -0.441003 -0.124061 -0.888890
vn -0.558563 -0.738229 0.378187
vn -0.408127 -0.713862 0.569064
vn -0.255308 -0.463666 0.848429
vn -0.376793 -0.469159 0.798697
vn 0.959212 -0.282688 0.000000
vn 0.959212 -0.282688 0.000000
vn 0.962911 0.134914 0.233669
vn 0.774877 0.127451 0.619130
vn -0.694764 -0.178462 0.696745
vn -0.490209 -0.139014 0.860448
vn -0.512825 0.066789 0.855891
vn -0.817581 0.138935 0.558800
vn -0.057126 0.247304 0.967252
vn -0.276951 0.437244 0.855638
vn -0.256242 0.051748 -0.965227
vn -0.339806 -0.039561 -0.939663
vn 0.011492 -0.808498 0.588387
vn -0.047064 -0.579510 0.813605
vn -0.193764 -0.087356 0.977151
vn -0.151338 0.161064 0.975272
vn -0.227356 0.204453 0.952107
vn 0.000000 0.135822 0.990733
vn 0.000000 0.409740 0.912203
vn -0.554791 0.476287 0.682171
vn -0.099182 -0.136299 -0.985690
vn 0.031357 0.091833 -0.995281
vn 0.605586 0.086781 -0.791034
vn 0.619943 -0.209441 -0.756178
vn 0.104839 -0.704564 0.701854
vn 0.215788 -0.834755 0.506576
vn 0.433805 -0.896983 0.085054
vn 0.422301 -0.826806 0.371555
vn 0.085741 0.130246 0.987767
vn 0.058137 -0.142300 0.988115
vn 0.618156 -0.218662 0.755030
vn 0.549201 0.075923 0.832235
vn -0.515468 0.133804 0.846398
vn -0.898043 0.269019 0.348064
vn -0.550970 0.084353 -0.830251
vn -0.320369 0.067464 -0.944888
vn -0.179421 0.098641 -0.978815
vn 0.089075 0.242916 -0.965949
vn 0.569943 0.265677 -0.777548
vn 0.973751 0.219248 0.061149
vn 0.688911 0.197740 0.697353
vn 0.049529 0.303503 0.951542
vn 0.469242 0.277746 0.838253
vn -0.216429 0.139584 0.966269
vn -0.112176 0.279903 0.953452
vn -0.267420 0.128210 0.955012
vn -0.548254 0.091332 -0.831310
vn -0.907580 0.156560 -0.389599
vn -0.954600 0.290268 -0.066953
vn -0.563946 0.170966 -0.807921
vn -0.484935 -0.130537 -0.864753
vn -0.854458 -0.216633 -0.472199
vn -0.383365 -0.563574 -0.731721
vn -0.158635 -0.498293 -0.852373
vn -0.300644 -0.746202 -0.593967
vn -0.559061 -0.776606 -0.290403
vn 0.134063 -0.814581 -0.564345
vn 0.029882 -0.600959 -0.798721
vn 0.293116 -0.928856 -0.226515
vn 0.185060 -0.875884 -0.445623
vn 0.041076 -0.824079 -0.564983
vn 0.229190 -0.953227 -0.197057
vn 0.969457 0.138017 -0.202741
vn 0.959212 -0.282687 -0.000000
vn 0.959212 -0.282687 -0.000001
vn 0.876122 0.143520 -0.460231
vn 0.972694 0.221796 -0.068367
vn 0.809359 0.232313 -0.539416
vn -0.562228 0.597327 -0.571927
vn 0.259811 0.439110 -0.860047
vn 0.277754 0.278357 -0.919440
vn -0.383810 0.393164 -0.835531
vn 0.640171 0.587052 -0.495530
vn -0.390812 0.670832 -0.630279
vn -0.090104 0.495824 -0.863736
vn 0.639649 0.365546 -0.676185
vn -0.274521 0.699947 -0.659327
vn -0.343262 0.449995 -0.824425
s 1
g obj_pillar_4
usemtl lambert7SG
f 1/1/1 9/2/2 20/7/3 14/8/4
s 2
f 10/15/5 13/16/6 38/17/7 30/18/8
s 3
f 15/3/9 16/4/10 8/5/11 5/6/12
s 4
f 32/19/13 33/20/14 9/2/15 1/1/16
s 5
f 2/21/17 34/27/18 35/28/19 18/29/20
s 6
f 32/19/21 1/1/22 14/8/23 31/43/24
s 2
f 13/16/6 48/44/25 39/45/26 38/17/7
s 3
f 8/5/11 16/4/10 42/9/27 43/10/28
s 4
f 9/2/15 33/20/14 45/46/29 46/47/30
s 1
f 20/7/3 9/2/2 46/47/31 47/48/32
s 2
f 12/49/33 11/50/34 36/51/35 37/52/36
s 3
f 51/11/37 50/12/38 17/13/39 6/14/40
s 4
f 54/53/41 53/54/42 34/27/43 2/21/44
s 1
f 19/55/45 54/53/46 2/21/47 18/29/48
s 6
f 31/43/24 14/8/23 10/15/49 30/18/50
s 3
f 3/22/51 7/23/52 16/4/10 15/3/9
f 42/9/27 16/4/10 7/23/52 41/24/53
f 17/13/39 50/12/38 49/25/54 4/26/55
s 5
f 18/29/20 35/28/19 36/51/56 11/50/57
s 1
f 12/49/58 19/55/45 18/29/48 11/50/59
f 13/16/60 20/7/3 47/48/32 48/44/61
f 14/8/4 20/7/3 13/16/60 10/15/62
s 6
f 15/3/63 22/30/64 21/31/65 3/22/66
f 5/6/67 23/32/68 22/30/64 15/3/63
s 4
f 5/6/69 8/5/70 24/33/71 23/32/72
f 44/34/73 24/33/71 8/5/70 43/10/74
f 25/35/75 52/36/76 51/11/77 6/14/78
s 5
f 26/37/79 25/35/80 6/14/81 17/13/82
f 27/38/83 26/37/79 17/13/82 4/26/84
s 2
f 28/39/85 27/38/86 4/26/87 49/25/88
f 29/40/89 40/41/90 41/24/91 7/23/92
f 21/31/93 29/40/89 7/23/92 3/22/94
s 6
f 22/56/64 31/43/24 30/18/50 21/62/65
f 23/63/68 32/19/21 31/43/24 22/56/64
s 4
f 23/63/72 24/64/71 33/20/14 32/19/13
f 45/46/29 33/20/14 24/64/71 44/65/73
f 34/27/43 53/54/42 52/66/76 25/61/75
s 5
f 35/28/19 34/27/18 25/61/80 26/60/79
f 36/51/56 35/28/19 26/60/79 27/59/83
s 2
f 37/52/36 36/51/35 27/59/86 28/58/85
f 38/17/7 39/45/26 40/57/90 29/42/89
f 30/18/8 38/17/7 29/42/89 21/62/93
f 48/44/25 12/49/33 37/52/36 39/45/26
f 40/57/90 39/45/26 37/52/36 28/58/85
f 41/24/91 40/41/90 28/39/85 49/25/88
s 3
f 50/12/38 42/9/27 41/24/53 49/25/54
f 43/10/28 42/9/27 50/12/38 51/11/37
s 4
f 52/36/76 44/34/73 43/10/74 51/11/77
f 53/54/42 45/46/29 44/65/73 52/66/76
f 46/47/30 45/46/29 53/54/42 54/53/41
s 1
f 47/48/32 46/47/31 54/53/46 19/55/45
f 48/44/61 47/48/32 19/55/45 12/49/58
