# This file uses centimeters as units for non-parametric coordinates.

mtllib model_ship.mtl
g default
v -0.007175 -0.258300 2.487167
v -0.310748 0.096995 2.677646
v 0.310748 0.096995 2.677646
v -0.500000 0.356595 -1.624239
v 0.500000 0.356595 -1.624239
v -0.596412 -0.251921 -1.624239
v 0.596412 -0.251921 -1.624239
v -0.007175 0.258300 2.734620
v 0.006343 0.651194 -1.624239
v 0.006343 -0.500000 -1.624239
v 0.406976 0.305941 0.238865
v 0.000029 0.586296 0.107253
v -0.406976 0.305941 0.238865
v -0.000302 -0.343671 0.305941
v 0.530262 0.427737 -0.558509
v 0.002885 0.618235 -0.577402
v -0.530262 0.427737 -0.558509
v -0.534344 -0.162419 -0.549300
v 0.003248 -0.444666 -0.524521
v 0.534344 -0.162419 -0.549300
v -3.064029 -0.009586 -1.189283
v -3.020702 0.004437 -0.490979
v 3.020702 0.004437 -0.490979
v 3.064029 -0.009586 -1.189283
v -0.000302 0.383676 0.746421
v -1.279546 -0.119025 -0.645653
v -1.180594 -0.118690 -1.598528
v -0.966309 0.261449 -1.598528
v -1.024194 0.250770 -0.613663
v 1.279546 -0.119025 -0.645653
v 1.024194 0.250770 -0.613663
v 0.966309 0.261449 -1.598528
v 1.180594 -0.118690 -1.598528
v -1.520739 0.893862 -0.515419
v -1.498121 0.893532 -1.412768
v 1.520739 0.893862 -0.515419
v 1.498121 0.893532 -1.412768
vt 0.084215 0.000176
vt 0.084316 0.169221
vt 0.021234 0.169216
vt 0.048010 0.203653
vt 0.844465 0.349222
vt 0.758428 0.408001
vt 0.758165 0.161521
vt 0.872835 0.206698
vt 0.674634 0.353420
vt 0.643448 0.211705
vt 0.985844 0.229870
vt 0.946264 0.328988
vt 0.373516 0.203898
vt 0.520564 0.959448
vt 0.531558 0.239786
vt 0.373353 0.505082
vt 0.204498 0.505092
vt 0.149596 0.169217
vt 0.122847 0.198233
vt 0.289824 0.202536
vt 0.122847 0.442139
vt 0.455755 0.202444
vt 0.558876 0.505071
vt 0.454760 0.610563
vt 0.049624 0.502001
vt 0.200482 0.203957
vt 0.200482 0.502602
vt 0.373116 0.610563
vt 0.959632 0.470364
vt 0.292250 0.610563
vt 0.205482 0.610563
vt 0.461813 0.767328
vt 0.865897 0.518269
vt 0.574331 0.337107
vt 0.841458 0.471886
vt 0.959632 0.470364
vt 0.552990 0.868250
vt 0.841501 0.471885
vt 0.957758 0.324889
vt 0.866457 0.517634
vt 0.952919 0.559057
vt 0.878560 0.373201
vt 0.957756 0.324745
vt 0.878536 0.374184
vt 0.559348 0.610563
vt 0.049624 0.749761
vt 0.552985 0.868241
vt 0.122847 0.749874
vt 0.200483 0.750108
vt 0.520564 0.959416
vt 0.849587 0.520836
vt 0.701300 0.520758
vt 0.701878 0.704964
vt 0.849587 0.704967
vt 0.700983 0.840131
vt 0.849586 0.840128
vt 0.849586 0.840128
vt 0.700983 0.840131
vt 0.701877 0.704965
vt 0.849587 0.704967
vt 0.701273 0.520775
vt 0.849587 0.520837
vt 0.952853 0.559159
vt 0.897136 0.014488
vt 0.996379 0.014545
vt 0.372893 0.767432
vt 0.285548 0.767335
vt 0.996383 0.152802
vt 0.996383 0.152902
vt 0.996378 0.014416
vt 0.862732 0.152867
vt 0.897163 0.014502
vt 0.611678 0.152856
vt 0.617382 0.014769
vt 0.232578 0.152791
vt 0.204242 0.014722
vt 0.204313 0.014593
vt 0.232500 0.152891
vt 0.611658 0.152842
vt 0.617353 0.014755
vt 0.862714 0.152853
vt 0.122847 0.523880
vt 0.200483 0.604847
vt 0.122847 0.604799
vt 0.049624 0.604730
vt 0.899072 0.706848
vt 0.952853 0.559158
vt 0.865897 0.518270
vt 0.899073 0.706848
vt 0.860518 0.899713
vt 0.552977 0.868240
vt 0.520601 0.959456
vt 0.860455 0.899714
vt 0.899073 0.706848
vt 0.952919 0.559057
vt 0.866457 0.517635
vt 0.899072 0.706848
vt 0.860332 0.899693
vt 0.520601 0.959408
vt 0.552979 0.868240
vt 0.860414 0.899714
vn -0.000996 -0.432000 0.901873
vn -0.000533 -0.432000 0.901874
vn 0.060175 -0.431217 0.900239
vn -0.372708 0.924719 0.077357
vn -0.000192 0.996474 0.083901
vn 0.000456 0.995412 0.095684
vn -0.413933 0.901536 0.126065
vn -0.017761 0.019786 -0.999646
vn 0.000000 0.000000 -1.000000
vn 0.000000 0.000000 -1.000000
vn -0.015010 0.004717 -0.999876
vn 0.810752 -0.585385 0.002435
vn 0.810752 -0.585385 0.002435
vn 0.810752 -0.585385 0.002435
vn 0.810752 -0.585385 0.002435
vn -0.816602 -0.577201 0.000355
vn -0.816602 -0.577201 0.000355
vn -0.816602 -0.577201 0.000355
vn -0.816602 -0.577201 0.000355
vn 0.366707 0.927015 0.078548
vn 0.411746 0.902405 0.127008
vn 0.017994 0.020045 -0.999637
vn 0.015208 0.004779 -0.999873
vn -0.057468 -0.431286 0.900383
vn -0.000674 0.984890 0.173178
vn 0.429573 0.893731 0.129272
vn 0.001150 0.989844 0.142150
vn -0.427742 0.894852 0.127583
vn -0.429910 -0.899530 0.077604
vn -0.000235 -0.995878 0.090703
vn -0.002971 -0.992683 0.120710
vn 0.435561 -0.896663 0.079257
vn 0.909201 -0.276537 0.311257
vn 0.909201 -0.276537 0.311257
vn 0.909201 -0.276537 0.311257
vn 0.909201 -0.276537 0.311257
vn -0.421882 -0.903816 0.071637
vn 0.000732 -0.996812 0.079784
vn 0.427770 -0.900949 0.072823
vn -0.133740 -0.990164 0.041106
vn -0.133740 -0.990164 0.041106
vn -0.083809 -0.996347 0.016388
vn -0.090312 -0.995721 0.019603
vn -0.157405 0.085032 -0.983866
vn -0.104222 0.095473 -0.989961
vn 0.098014 -0.051793 0.993836
vn 0.122370 0.009520 0.992439
vn -0.019280 -0.096195 0.995176
vn 0.059888 -0.074594 0.995414
vn -0.063078 -0.997990 0.006148
vn -0.063078 -0.997990 0.006148
vn -0.204533 0.115295 -0.972046
vn -0.125759 0.992056 -0.003059
vn -0.125759 0.992056 -0.003059
vn -0.125759 0.992056 -0.003059
vn -0.125759 0.992056 -0.003059
vn 0.019280 -0.096195 0.995176
vn -0.059888 -0.074594 0.995414
vn 0.077832 -0.139145 0.987209
vn -0.077832 -0.139145 0.987209
vn 0.125759 0.992056 -0.003059
vn 0.125759 0.992056 -0.003059
vn 0.125759 0.992056 -0.003059
vn 0.125759 0.992056 -0.003059
vn 0.157405 0.085032 -0.983866
vn 0.104222 0.095473 -0.989961
vn 0.204533 0.115295 -0.972046
vn 0.083809 -0.996347 0.016388
vn 0.090312 -0.995721 0.019603
vn 0.063078 -0.997990 0.006148
vn 0.063078 -0.997990 0.006148
vn 0.448175 0.893712 -0.020466
vn 0.448175 0.893712 -0.020466
vn 0.448175 0.893712 -0.020466
vn 0.448175 0.893712 -0.020466
vn -0.095675 0.205724 -0.973922
vn -0.781883 -0.622334 -0.036863
vn -0.781883 -0.622334 -0.036863
vn -0.781883 -0.622334 -0.036863
vn -0.781883 -0.622334 -0.036863
vn 0.043789 -0.183827 0.981983
vn 0.781884 -0.622334 -0.036863
vn 0.781883 -0.622334 -0.036863
vn 0.781883 -0.622334 -0.036863
vn 0.781883 -0.622334 -0.036863
vn -0.448175 0.893712 -0.020466
vn -0.448175 0.893712 -0.020466
vn -0.448175 0.893712 -0.020466
vn -0.448175 0.893712 -0.020466
vn -0.098014 -0.051793 0.993836
vn -0.043789 -0.183827 0.981983
vn 0.095675 0.205724 -0.973922
vn -0.122370 0.009520 0.992439
vn 0.133740 -0.990164 0.041106
vn 0.133740 -0.990164 0.041106
vn -0.000845 0.999692 -0.024819
vn 0.429361 0.902871 -0.021766
vn 0.429361 0.902871 -0.021766
vn 0.000817 0.999692 -0.024816
vn -0.423119 0.905779 -0.023125
vn -0.423119 0.905779 -0.023125
vn -0.909380 -0.276164 0.311064
vn -0.909380 -0.276164 0.311064
vn -0.909380 -0.276164 0.311064
vn -0.909380 -0.276164 0.311064
s 1
g ship:pCube1
usemtl ship:lambert2SG
f 1/1/1 8/2/2 2/3/3
s 2
f 2/4/4 8/19/5 25/21/6 13/25/7
s 3
f 4/5/8 9/6/9 10/7/10 6/8/11
s off
f 1/13/12 14/16/13 11/17/14 3/20/15
f 14/16/16 1/13/17 2/22/18 13/23/19
s 2
f 8/19/5 3/26/20 11/27/21 25/21/6
s 3
f 10/7/10 9/6/9 5/9/22 7/10/23
s 1
f 8/2/2 1/1/1 3/18/24
s 2
f 12/82/25 11/27/21 15/83/26 16/84/27
f 13/25/7 12/82/25 16/84/27 17/85/28
s 4
f 18/24/29 19/28/30 14/16/31
f 14/16/31 19/28/30 20/30/32
s off
f 20/30/33 15/31/34 11/17/35 14/16/36
s 4
f 6/32/37 10/66/38 19/28/30 18/24/29
f 20/30/32 19/28/30 10/66/38 7/67/39
s 5
f 6/65/40 18/68/41 26/71/42 27/72/43
s 3
f 4/5/8 6/8/11 27/11/44 28/12/45
s 6
f 15/35/46 20/36/47 30/39/48 31/42/49
s 2
f 25/21/6 11/27/21 12/82/25
f 13/25/7 25/21/6 12/82/25
s 5
f 27/72/43 26/71/42 22/73/50 21/74/51
s 3
f 28/14/45 27/37/44 21/90/52
s off
f 29/75/53 28/76/54 21/74/55 22/73/56
s 7
f 26/47/57 29/50/58 22/98/59
s 6
f 31/99/49 30/100/48 23/101/60
s off
f 32/77/61 31/78/62 23/79/63 24/80/64
s 3
f 33/91/65 32/92/66 24/93/67
s 8
f 30/81/68 33/64/69 24/80/70 23/79/71
s off
f 17/51/72 4/52/73 35/53/74 34/54/75
s 3
f 4/40/8 28/41/45 35/86/76
s off
f 28/55/77 29/56/78 34/54/79 35/53/80
s 6
f 15/33/46 31/63/49 36/94/81
s off
f 31/57/82 32/58/83 37/59/84 36/60/85
f 5/61/86 15/62/87 36/60/88 37/59/89
s 7
f 29/95/58 17/96/90 34/97/91
s 3
f 32/87/66 5/88/22 37/89/92
s 7
f 18/29/93 17/38/90 29/44/58 26/43/57
s 3
f 7/10/23 5/9/22 32/34/66 33/15/65
s 8
f 20/69/94 7/70/95 33/64/69 30/81/68
s 9
f 16/84/96 15/83/97 5/49/98 9/48/99
f 17/85/100 16/84/96 9/48/99 4/46/101
s off
f 18/24/102 14/16/103 13/23/104 17/45/105
