# This file uses centimeters as units for non-parametric coordinates.

mtllib model_pillar_0.mtl
g default
v -9.113257 -0.285924 -1.481409
v -6.342483 6.522528 -0.232887
v 5.966758 5.523700 0.948150
v 6.108160 -0.552841 -0.172640
v -7.645828 6.522532 0.680320
v 5.847637 5.523700 2.056952
v 8.074000 -0.562167 1.947984
v -9.225157 -0.361495 0.709093
v -6.074503 6.522528 2.750012
v 4.032603 5.523688 3.246040
v 5.440294 -0.594984 3.526425
v -6.288874 -0.057703 3.013096
v -4.363435 6.522526 2.983767
v -4.567091 6.522534 -0.055522
v -4.384653 -0.333142 -1.606755
v -4.250824 -3.032367 0.419784
v -4.450706 -0.525573 2.630948
v 2.385611 5.523709 2.815424
v 4.437104 5.523702 0.156991
v 2.800472 -0.288122 -2.794597
v 2.313846 -2.553509 1.554183
v 1.852046 -0.302536 4.552577
v -3.217674 -0.416439 -2.320099
v -1.835835 4.142450 -0.232453
v -1.843501 4.515209 0.421948
v -1.770491 3.178749 1.558193
v -1.688261 -0.856914 1.720035
v -4.663855 4.542280 -1.185056
v 1.202380 2.721621 -2.166079
v 5.776497 2.797193 0.363770
v 6.833014 2.281760 1.539002
v 5.282522 1.744343 3.111832
v -1.611702 1.090709 1.642830
v -6.116953 2.246983 2.917542
v -6.462645 2.699968 -0.853859
v -1.703684 3.204662 -1.340541
v 0.595267 2.355025 2.965002
v -4.406267 1.576748 2.480687
v -4.505012 6.522538 0.685603
v 2.614088 5.523712 0.981830
v -3.047827 -3.050166 0.298883
v -8.208207 2.909618 0.693680
vt 0.892032 0.703167
vt 0.938728 0.678088
vt 0.936010 0.809914
vt 0.845942 0.798958
vt 0.843878 0.951761
vt 0.303687 0.196594
vt 0.366160 0.162172
vt 0.902984 0.968623
vt 0.776497 0.998076
vt 0.784748 0.965650
vt 0.380901 0.775404
vt 0.309737 0.755370
vt 0.287652 0.610703
vt 0.404259 0.649143
vt 0.375586 0.252762
vt 0.306645 0.281006
vt 0.490635 0.220191
vt 0.483415 0.123556
vt 0.654185 0.156503
vt 0.601351 0.261493
vt 0.763488 0.129534
vt 0.767639 0.684743
vt 0.780230 0.551324
vt 0.777538 0.873480
vt 0.659573 0.892832
vt 0.653316 0.926061
vt 0.775912 0.221971
vt 0.677978 0.372154
vt 0.734276 0.360020
vt 0.489241 0.329067
vt 0.477402 0.929204
vt 0.425153 0.879575
vt 0.537201 0.683306
vt 0.720515 0.684413
vt 0.665725 0.826840
vt 0.353967 0.428274
vt 0.315129 0.432817
vt 0.568154 0.784296
vt 0.517808 0.504577
vt 0.731838 0.542905
vt 0.334617 0.909360
vt 0.367483 0.880656
vt 0.232980 0.481651
vt 0.380473 0.499307
vt 0.492021 0.411821
vt 0.665584 0.442860
vt 0.173386 0.319282
vt 0.153497 0.153450
vt 0.353846 0.013481
vt 0.403796 0.005559
vt 0.640939 0.014686
vt 0.804188 0.392263
vt 0.875363 0.245189
vt 0.880986 0.091086
vn -0.772456 0.492056 -0.401489
vn -0.888244 0.397328 0.230547
vn -0.940508 0.261514 0.216924
vn -0.719717 0.309723 -0.621353
vn -0.000002 1.000000 -0.000006
vn -0.000001 1.000000 0.000002
vn 0.434130 0.898817 0.060496
vn 0.328739 0.936234 -0.124081
vn 0.827802 0.197319 -0.525175
vn 0.940334 0.273025 0.203048
vn 0.924023 0.345766 0.163181
vn 0.737747 0.200576 -0.644592
vn -0.259579 -0.766701 -0.587188
vn -0.226833 -0.969683 0.090897
vn -0.309975 -0.937859 -0.155998
vn -0.249490 -0.809557 -0.531388
vn 0.237576 0.042466 0.970440
vn 0.281158 0.043646 0.958668
vn 0.261165 -0.011891 0.965221
vn 0.100372 -0.016380 0.994815
vn -0.127506 0.172779 -0.976673
vn -0.113932 0.165125 -0.979670
vn -0.122545 0.179267 -0.976138
vn -0.033072 0.317588 -0.947652
vn 0.068759 0.916919 -0.393106
vn 0.215587 0.973123 0.080960
vn -0.224527 0.973894 -0.033438
vn -0.043891 0.992331 -0.115558
vn 0.303788 0.294862 -0.905963
vn -0.136533 0.208228 -0.968504
vn -0.085943 0.427747 -0.899803
vn 0.082182 0.409009 -0.908822
vn 0.152758 -0.844961 -0.512549
vn 0.087821 -0.995249 -0.042033
vn 0.005313 -0.981162 -0.193113
vn 0.038309 -0.802698 -0.595154
vn -0.169048 0.084314 0.981995
vn -0.267292 0.105718 0.957799
vn -0.105662 0.339610 0.934613
vn -0.314512 0.181663 0.931708
vn 0.000004 1.000000 0.000003
vn 0.000004 1.000000 -0.000001
vn 0.526164 0.305053 -0.793785
vn 0.504928 0.248866 -0.826507
vn 0.292475 -0.879241 -0.376024
vn 0.279424 -0.960025 -0.016558
vn 0.140030 0.402175 0.904791
vn 0.051813 0.255746 0.965355
vn -0.985238 0.129379 0.112105
vn -0.618478 0.120232 -0.776550
vn -0.189881 0.290055 -0.937984
vn 0.020967 0.425503 -0.904714
vn 0.064709 0.681053 -0.729369
vn 0.358380 0.312846 -0.879597
vn 0.469799 0.165019 -0.867212
vn 0.923088 0.185224 -0.337048
vn 0.808868 0.162770 0.565012
vn -0.156025 0.039691 0.986955
vn -0.089903 0.009196 0.995908
vn 0.045510 0.043451 0.998019
vn 0.163646 -0.041889 0.985629
vn 0.052028 -0.036796 0.997968
vn -0.000001 1.000000 0.000004
vn 0.449017 0.884334 0.127820
vn 0.108024 0.927593 0.357635
vn -0.247569 0.943644 0.219650
vn 0.000004 1.000000 0.000007
vn 0.586893 0.202458 0.783943
vn 0.617498 0.124448 0.776666
vn 0.554358 0.274445 0.785728
vn -0.033614 -0.767144 0.640594
vn 0.186306 -0.828768 0.527668
vn -0.170290 -0.659556 0.732111
vn -0.170690 -0.719372 0.673327
vn -0.275887 -0.732052 0.622886
vn -0.655084 0.154396 0.739612
vn -0.703149 0.116470 0.701439
vn -0.753210 0.072742 0.653746
s 1
g obj_pillar_3
usemtl lambert8SG
f 1/1/1 8/2/2 42/3/3 35/4/4
s 2
f 2/5/5 5/8/6 39/9/7 14/10/8
s 3
f 30/11/9 31/12/10 7/13/11 4/14/12
s 4
f 15/22/13 16/23/14 8/2/15 1/1/16
s 5
f 12/6/17 17/7/18 38/15/19 34/16/20
s 6
f 15/22/21 1/1/22 35/4/23 28/24/24
s 2
f 24/25/25 25/26/26 40/31/27 19/32/28
s 6
f 20/33/29 23/34/30 36/35/31 29/38/32
s 4
f 20/33/33 21/39/34 41/40/35 23/34/36
s 5
f 33/17/37 27/18/38 22/19/39 37/20/40
s 2
f 19/32/28 40/31/27 6/41/41 3/42/42
s 6
f 4/14/43 20/33/29 29/38/32 30/11/44
s 4
f 4/14/45 7/13/46 21/39/34 20/33/33
s 5
f 37/20/40 22/19/39 11/21/47 32/27/48
s 4
f 23/34/36 41/40/35 16/23/14 15/22/13
s 6
f 36/35/31 23/34/30 15/22/21 28/24/24
s 2
f 14/10/8 39/9/7 25/26/26 24/25/25
s 5
f 38/15/19 17/7/18 27/18/38 33/17/37
s 1
f 35/4/4 42/3/3 5/8/49 2/5/50
s 6
f 28/24/24 35/4/23 2/5/51 14/10/52
f 24/25/53 36/35/31 28/24/24 14/10/52
f 29/38/32 36/35/31 24/25/53 19/32/54
f 30/11/44 29/38/32 19/32/54 3/42/55
s 3
f 3/42/56 6/41/57 31/12/10 30/11/9
s 5
f 18/28/58 37/20/40 32/27/48 10/29/59
f 26/30/60 33/17/37 37/20/40 18/28/58
f 13/36/61 38/15/19 33/17/37 26/30/60
f 34/16/20 38/15/19 13/36/61 9/37/62
s 2
f 5/43/6 9/37/63 13/36/64 39/44/7
f 25/45/26 39/44/7 13/36/64 26/30/65
f 40/46/27 25/45/26 26/30/65 18/28/66
f 6/52/41 40/46/27 18/28/66 10/29/67
s 3
f 32/27/68 31/53/10 6/52/57 10/29/69
f 7/54/11 31/53/10 32/27/68 11/21/70
s 4
f 22/19/71 21/51/34 7/54/46 11/21/72
f 27/18/73 41/50/35 21/51/34 22/19/71
f 17/7/74 16/49/14 41/50/35 27/18/73
f 8/48/15 16/49/14 17/7/74 12/6/75
s 1
f 42/47/3 8/48/2 12/6/76 34/16/77
f 5/43/49 42/47/3 34/16/77 9/37/78
