# This file uses centimeters as units for non-parametric coordinates.

mtllib model_pillar_2.mtl
g default
v 2.733656 -0.518646 2.142152
v 2.034365 13.916304 1.851998
v -1.333258 14.326372 1.907595
v -3.234106 -0.919848 0.392568
v -1.517306 14.319314 -0.136695
v -0.125232 14.224785 2.969742
v -2.490032 7.191217 0.140125
v -1.959426 7.191200 2.249380
v 2.180463 7.191192 1.345544
v -1.956664 7.191217 -0.763501
v -3.242718 1.738876 -1.089387
v -2.758957 1.738876 3.357853
v 2.762488 1.738876 2.155202
v 0.319987 13.933401 -0.451988
v -0.036217 14.157124 1.345743
v 1.594382 7.191190 2.186893
v 1.953140 1.738876 3.325495
v 1.420284 -1.952900 2.524294
v 0.859896 1.738876 -2.379228
v 0.379823 7.191214 -1.885324
v -0.572110 7.191195 3.206088
v -0.971531 1.738876 3.992138
v -0.962893 -1.952900 3.219128
v 2.265712 7.191210 -0.931324
v 0.871133 -1.281487 -1.802318
v -1.519089 -3.047612 1.311459
v 0.864089 -3.047612 0.616625
v 2.189148 -1.195379 0.277694
v 3.245964 1.738876 0.605989
v 2.767153 7.191206 0.310928
vt 0.714668 0.492234
vt 0.752810 0.493637
vt 0.690928 0.794205
vt 0.625198 0.833765
vt 0.619741 0.795496
vt 0.165003 0.529841
vt 0.232269 0.523215
vt 0.661166 0.099163
vt 0.666102 0.022805
vt 0.742883 0.098625
vt 0.701273 0.153419
vt 0.681482 0.491337
vt 0.248769 0.830131
vt 0.419692 0.530705
vt 0.375098 0.854029
vt 0.648469 0.888915
vt 0.671403 0.248044
vt 0.309496 0.846833
vt 0.349707 0.523324
vt 0.134569 0.140744
vt 0.206009 0.057289
vt 0.715293 0.247206
vt 0.767265 0.246259
vt 0.580605 0.885286
vt 0.576108 0.811880
vt 0.604122 0.491460
vt 0.581224 0.249624
vt 0.593677 0.100572
vt 0.577522 0.028603
vt 0.206677 0.160901
vt 0.157546 0.847388
vt 0.122609 0.537199
vt 0.550267 0.494818
vt 0.522357 0.247794
vt 0.479565 0.100957
vt 0.315590 0.522145
vt 0.471748 0.278528
vt 0.332256 0.279229
vt 0.291533 0.047245
vt 0.353808 0.154979
vt 0.085080 0.284111
vt 0.205127 0.285340
vn 0.904091 0.077984 0.420165
vn 0.939958 0.123189 -0.318282
vn 0.838993 0.236635 -0.489994
vn 0.131371 0.989079 -0.066814
vn 0.144369 0.987836 -0.057779
vn 0.120522 0.992103 -0.034728
vn 0.493415 -0.819319 0.291990
vn 0.052413 -0.951101 -0.304400
vn 0.778391 -0.620658 -0.094295
vn 0.784816 -0.616757 0.060629
vn 0.445540 0.160521 -0.880754
vn -0.134807 0.136864 -0.981374
vn -0.259859 0.154072 -0.953276
vn 0.515865 0.090605 0.851865
vn 0.678149 0.066420 0.731917
vn 0.581011 0.002518 0.813892
vn -0.085171 0.053224 0.994944
vn 0.153069 0.986022 -0.065804
vn -0.881903 0.143071 0.449198
vn -0.879883 0.107668 0.462832
vn -0.978781 0.117015 0.168210
vn -0.978897 0.129036 0.158463
vn -0.167488 -0.733440 -0.658798
vn 0.831569 0.108164 -0.544788
vn 0.823619 0.240842 -0.513466
vn -0.848510 0.002568 0.529173
vn -0.982348 0.121097 0.142573
vn 0.441466 0.021865 0.897011
vn 0.767609 0.050739 0.638907
vn 0.968259 -0.000634 0.249949
vn 0.954702 -0.044394 -0.294235
vn 0.131369 -0.093501 -0.986914
vn -0.992521 0.056964 0.107964
vn 0.305402 -0.213510 0.927978
vn 0.651782 -0.162913 0.740702
vn 0.978252 -0.206098 0.023367
vn 0.864633 -0.179095 -0.469399
vn 0.158500 -0.315173 -0.935705
vn 0.160033 0.985739 -0.052040
vn 0.149297 0.987624 -0.048057
vn -0.080463 0.136642 0.987347
vn -0.101942 -0.030837 0.994312
vn -0.193006 -0.314200 0.929531
vn -0.095597 -0.851079 0.516262
vn -0.356893 -0.904057 -0.235180
vn -0.447346 -0.729023 -0.518081
vn -0.382528 -0.316088 -0.868194
vn -0.379481 -0.097236 -0.920076
vn -0.423557 0.127149 -0.896902
vn -0.325058 0.147604 -0.934104
vn -0.658268 -0.345384 0.668875
vn -0.850858 0.154317 -0.502222
s 1
g obj_pillar_2
usemtl lambert7SG
f 9/1/1 30/2/2 2/3/3
s 2
f 2/3/4 15/4/5 6/5/6
s 3
f 18/8/7 27/9/8 28/10/9 1/11/10
s 1
f 24/6/11 20/7/12 14/13/13
s 5
f 16/12/14 9/1/15 2/3/16 6/5/17
s 2
f 2/3/4 14/16/18 15/4/5
s 5
f 8/14/19 3/15/20 5/18/21 7/19/22
s 3
f 28/20/9 27/21/8 25/30/23
s 1
f 2/31/3 30/32/2 24/6/24 14/13/25
s 5
f 12/37/26 8/14/19 7/19/22 11/38/27
f 17/17/28 13/22/29 9/1/15 16/12/14
s 1
f 13/22/30 29/23/31 30/2/2 9/1/1
f 19/42/32 24/6/24 30/32/2 29/41/31
f 19/42/32 20/7/12 24/6/11
s 5
f 4/40/33 12/37/26 11/38/27
f 18/8/34 1/11/35 13/22/29 17/17/28
s 1
f 1/11/36 28/10/37 29/23/31 13/22/30
f 19/42/32 29/41/31 28/20/37 25/30/38
s 2
f 15/4/5 14/16/18 5/24/39 3/25/40
f 6/5/6 15/4/5 3/25/40
s 5
f 21/26/41 16/12/14 6/5/17
f 22/27/42 17/17/28 16/12/14 21/26/41
f 23/28/43 18/8/34 17/17/28 22/27/42
s 3
f 23/28/44 26/29/45 27/9/8 18/8/7
f 25/30/23 27/21/8 26/39/45 4/40/46
s 1
f 19/42/32 25/30/38 4/40/47 11/38/48
f 20/7/12 19/42/32 11/38/48 10/36/49
f 14/13/13 20/7/12 10/36/49 5/18/50
s 5
f 8/33/19 21/26/41 6/5/17 3/25/20
f 12/34/26 22/27/42 21/26/41 8/33/19
f 4/35/51 23/28/43 22/27/42 12/34/26
s 3
f 4/35/46 26/29/45 23/28/44
s 1
f 7/19/52 10/36/49 11/38/48
f 5/18/50 10/36/49 7/19/52
