# This file uses centimeters as units for non-parametric coordinates.

mtllib model_pillar_5.mtl
g default
v -1.494709 0.849572 -1.194596
v 1.849203 0.816168 -0.317465
v -2.162667 -1.338109 -1.100232
v 1.290301 -1.504606 -1.545353
v -2.434704 -1.234346 1.845354
v 1.540697 -1.372558 2.237181
v 1.938130 0.858797 1.799234
v -1.837079 1.054508 1.304399
v 0.602913 1.046715 -1.409446
v -0.538225 -1.780097 -2.300664
v -0.807944 -1.884463 2.620626
v 0.478020 1.568014 1.870443
v 1.898695 0.839894 0.860605
v 0.533403 2.134455 0.416010
v -1.685259 0.963631 0.196245
v -2.946760 -1.280359 0.249014
v -0.688340 -2.856919 0.438330
v 2.423658 -1.431113 0.559855
vt 0.808282 0.285238
vt 0.702304 0.295020
vt 0.746215 0.160368
vt 0.836387 0.160843
vt 0.610253 0.302418
vt 0.666412 0.165886
vt 0.689564 0.428813
vt 0.540506 0.341443
vt 0.019630 0.141256
vt 0.215908 0.009877
vt 0.216584 0.143077
vt 0.120483 0.163545
vt 0.138009 0.304594
vt 0.279866 0.346817
vt 0.272558 0.447959
vt 0.870165 0.345451
vt 0.936177 0.140314
vt 0.080893 0.354561
vt 0.456049 0.151913
vt 0.417573 0.348926
vt 0.363335 0.314717
vt 0.344016 0.184145
vt 0.528979 0.133552
vt 0.751401 0.002611
vn -0.538686 -0.842283 -0.019427
vn -0.014005 -0.999901 0.001401
vn -0.030578 -0.942359 0.333204
vn -0.528431 -0.804333 0.271678
vn -0.366164 0.919792 0.141088
vn 0.025436 0.983019 0.181733
vn 0.028322 0.991781 -0.124770
vn -0.330428 0.933880 -0.136699
vn -0.297779 0.301396 0.905808
vn -0.143291 0.257512 0.955592
vn -0.066513 0.233485 0.970083
vn -0.297779 0.301396 0.905808
vn 0.992153 0.083268 -0.093273
vn 0.996561 0.076749 -0.031227
vn 0.951431 0.036265 0.305719
vn 0.951431 0.036265 0.305719
vn -0.327819 0.262486 -0.907544
vn 0.183954 0.234744 -0.954493
vn -0.024883 0.254280 -0.966811
vn -0.327819 0.262486 -0.907544
vn -0.914562 0.387564 -0.115634
vn -0.915579 0.388916 0.102269
vn -0.915579 0.388916 0.102269
vn -0.913614 0.387125 -0.124276
vn 0.551204 0.812546 0.189586
vn 0.591107 0.805925 -0.032824
vn 0.504547 0.180908 -0.844219
vn 0.504547 0.180908 -0.844219
vn 0.358172 -0.933026 0.034288
vn 0.330236 -0.887013 0.322727
vn 0.125399 0.167278 0.977903
vn 0.125399 0.167278 0.977902
vn 0.007832 0.931881 -0.362680
vn 0.600119 0.751486 -0.274091
vn -0.281990 0.891028 -0.355741
vn -0.868828 0.367245 -0.332067
vn -0.868828 0.367245 -0.332067
vn -0.501077 -0.805887 -0.315384
vn 0.047137 -0.950613 -0.306778
vn 0.355201 -0.898430 -0.258179
vn 0.934479 0.106217 -0.339805
vn 0.934479 0.106217 -0.339805
s 1
g pCube1
usemtl lambert9SG
f 16/9/1 17/10/2 11/11/3 5/12/4
s 2
f 8/13/5 12/14/6 14/15/7 15/18/8
s 3
f 5/12/9 11/11/10 12/14/11 8/13/12
s 4
f 18/19/13 13/20/14 7/21/15 6/22/16
s 5
f 1/1/17 9/2/18 10/3/19 3/4/20
s 6
f 16/9/21 5/12/22 8/13/23 15/18/24
s 2
f 14/15/7 12/14/6 7/21/25 13/20/26
s 5
f 10/3/19 9/2/18 2/5/27 4/6/28
s 1
f 11/11/3 17/10/2 18/19/29 6/22/30
s 3
f 12/14/11 11/11/10 6/22/31 7/21/32
s 2
f 9/2/33 14/7/7 13/8/26 2/5/34
f 15/16/8 14/7/7 9/2/33 1/1/35
s 6
f 3/4/36 16/17/21 15/16/24 1/1/37
s 1
f 3/4/38 10/3/39 17/24/2 16/17/1
f 18/23/29 17/24/2 10/3/39 4/6/40
s 4
f 2/5/41 13/8/14 18/23/13 4/6/42
